Coordinates
version=1
nRows=17
nColumns=63
inDegrees=yes

Units are S.I. units (second, meters, Newtons, ...)
If the header above contains a line with 'inDegrees', this indicates whether rotational values are in degrees (yes) or radians (no).

endheader
time	pelvis_tilt	pelvis_list	pelvis_rotation	pelvis_tx	pelvis_ty	pelvis_tz	hip_flexion_r	hip_adduction_r	hip_rotation_r	knee_angle_r	knee_angle_r_beta	ankle_angle_r	subtalar_angle_r	mtp_angle_r	hip_flexion_l	hip_adduction_l	hip_rotation_l	knee_angle_l	knee_angle_l_beta	ankle_angle_l	subtalar_angle_l	mtp_angle_l	L5_S1_Flex_Ext	L5_S1_Lat_Bending	L5_S1_axial_rotation	L4_L5_Flex_Ext	L4_L5_Lat_Bending	L4_L5_axial_rotation	L3_L4_Flex_Ext	L3_L4_Lat_Bending	L3_L4_axial_rotation	L2_L3_Flex_Ext	L2_L3_Lat_Bending	L2_L3_axial_rotation	L1_L2_Flex_Ext	L1_L2_Lat_Bending	L1_L2_axial_rotation	L1_T12_Flex_Ext	L1_T12_Lat_Bending	L1_T12_axial_rotation	Abs_r3	Abs_r2	Abs_r1	Abs_t1	Abs_t2	neck_flexion	neck_bending	neck_rotation	arm_flex_r	arm_add_r	arm_rot_r	elbow_flex_r	pro_sup_r	wrist_flex_r	wrist_dev_r	arm_flex_l	arm_add_l	arm_rot_l	elbow_flex_l	pro_sup_l	wrist_flex_l	wrist_dev_l
1.673469	-4.982817	-11.185573	89.182338	0.108663	0.483312	0.772135	19.196263	0.073453	-3.195077	27.767217	0.484629	41.919990	9.312734	0.000000	17.606515	-0.959863	-10.155731	27.567908	0.481151	39.143029	-3.697779	0.000000	-0.311052	0.649916	-1.795206	-0.577655	0.864388	-1.907407	-0.511028	1.580205	-1.907407	-0.355502	1.580205	-1.570805	-0.288843	1.325308	-1.458605	-0.177735	1.006720	-1.346405	-2.221815	7.351978	-9.984398	0.000000	0.000000	0.932642	-1.133041	3.137021	0.771157	-18.830414	34.129955	37.061121	87.754313	-14.328914	-5.482154	-12.938527	-14.761768	5.391364	54.885743	80.947209	-9.340969	-1.725575
1.693878	-5.081201	-11.322685	88.895329	0.109068	0.481534	0.773991	19.927895	0.007616	-3.145220	28.635788	0.499789	42.239705	9.493906	0.000000	18.038935	-1.004206	-10.546898	28.035513	0.489312	39.349964	-3.861507	0.000000	-0.366164	0.593369	-1.680777	-0.680003	0.789181	-1.785825	-0.601571	1.442717	-1.785825	-0.418489	1.442717	-1.470680	-0.340020	1.209998	-1.365631	-0.209226	0.919128	-1.260583	-2.615473	6.712308	-9.347976	0.000000	0.000000	-0.117205	-1.861100	3.039218	1.217531	-17.983357	34.463343	35.372716	87.840307	-14.405737	-5.973795	-11.966077	-13.672646	5.763611	51.486727	82.174348	-10.263654	-1.997048
1.714286	-5.262427	-11.496368	88.500803	0.109718	0.480121	0.775780	20.632778	-0.071415	-2.836571	29.366579	0.512543	42.442692	9.510581	0.000000	18.417014	-1.008164	-11.144054	28.344300	0.494701	39.452970	-3.853267	0.000000	-0.411063	0.523208	-1.528981	-0.763384	0.695867	-1.624542	-0.675335	1.272128	-1.624542	-0.469804	1.272128	-1.337858	-0.381713	1.066926	-1.242297	-0.234881	0.810449	-1.146735	-2.936180	5.918634	-8.503732	0.000000	0.000000	-0.756253	-2.356019	2.695610	1.496817	-17.089692	34.762517	33.643928	87.751108	-14.359911	-6.502897	-11.053849	-12.669883	6.311714	48.027259	83.671975	-11.255163	-2.135943
1.734694	-5.468275	-11.699555	88.076284	0.110400	0.479013	0.777476	21.285788	-0.138070	-2.378562	29.945250	0.522643	42.553417	9.396751	0.000000	18.758135	-0.998443	-11.810607	28.537338	0.498071	39.473007	-3.755764	0.000000	-0.445527	0.448953	-1.351971	-0.827389	0.597107	-1.436470	-0.731957	1.091584	-1.436470	-0.509193	1.091584	-1.182975	-0.413717	0.915505	-1.098477	-0.254574	0.695428	-1.013979	-3.182357	5.078645	-7.519260	0.000000	0.000000	-1.104770	-2.564402	2.284838	1.546477	-16.235036	34.835845	32.117972	87.580137	-14.229404	-6.903034	-10.211624	-11.729012	6.961476	44.626821	85.319745	-12.310880	-2.213041
1.755102	-5.635381	-11.924921	87.723373	0.110845	0.478145	0.779106	21.877051	-0.183871	-1.973596	30.384205	0.530304	42.619868	9.284070	0.000000	19.101527	-0.988075	-12.323652	28.681210	0.500582	39.410487	-3.743139	0.000000	-0.470423	0.381239	-1.164159	-0.873623	0.507048	-1.236919	-0.772858	0.926945	-1.236919	-0.537647	0.926945	-1.018639	-0.436835	0.777423	-0.945879	-0.268800	0.590539	-0.873119	-3.360185	4.312654	-6.474704	0.000000	0.000000	-1.278762	-2.534230	1.914587	1.309227	-15.460654	34.407101	30.956826	87.505749	-13.949524	-7.065044	-9.382777	-10.871440	7.876444	41.361284	86.730803	-13.442319	-2.275862
1.775510	-5.729861	-12.168167	87.425460	0.111023	0.477414	0.780675	22.419521	-0.172154	-1.600845	30.717340	0.536119	42.647598	9.143429	0.000000	19.461705	-1.021429	-12.736202	28.821059	0.503022	39.320836	-3.759673	0.000000	-0.487168	0.326182	-0.973299	-0.904719	0.433822	-1.034130	-0.800368	0.793078	-1.034130	-0.556784	0.793078	-0.851637	-0.452384	0.665150	-0.790806	-0.278368	0.505256	-0.729974	-3.479790	3.689834	-5.413198	0.000000	0.000000	-1.382402	-2.306776	1.713344	0.859166	-14.817817	33.612747	30.177084	87.447830	-13.564469	-7.108479	-8.604718	-10.109997	9.002962	38.338066	87.808851	-14.608827	-2.419500
1.795918	-5.718529	-12.443584	87.233167	0.110803	0.476710	0.782176	22.939967	-0.101332	-1.346826	30.977820	0.540665	42.652264	9.010244	0.000000	19.887450	-1.113881	-12.989789	29.011968	0.506354	39.235777	-3.807891	0.000000	-0.493763	0.289325	-0.791960	-0.916968	0.384802	-0.841458	-0.811204	0.703464	-0.841458	-0.564322	0.703464	-0.692965	-0.458508	0.589991	-0.643468	-0.282136	0.448164	-0.593970	-3.526901	3.272898	-4.404646	0.000000	0.000000	-1.468265	-1.986818	1.685887	0.227733	-14.326526	32.453099	29.811503	87.413957	-13.109383	-7.056874	-7.886899	-9.485858	10.422312	35.656902	88.532199	-15.721304	-2.604955
1.816327	-5.629134	-12.758386	87.109170	0.110270	0.475944	0.783571	23.470838	0.015526	-1.149397	31.214141	0.544790	42.626776	8.846011	0.000000	20.385588	-1.257497	-13.152893	29.265219	0.510774	39.187335	-3.844995	0.000000	-0.489016	0.266992	-0.620556	-0.908152	0.355100	-0.659341	-0.803404	0.649165	-0.659341	-0.558896	0.649165	-0.542987	-0.454100	0.544451	-0.504202	-0.279424	0.413571	-0.465417	-3.492992	3.020272	-3.451349	0.000000	0.000000	-1.575568	-1.661283	1.782168	-0.528303	-13.962485	30.995999	29.808562	87.411245	-12.583140	-6.944019	-7.278742	-9.036799	12.056219	33.452372	88.958971	-16.714196	-2.722672
1.836735	-5.416717	-13.103944	87.102223	0.109400	0.475098	0.784794	23.992150	0.203914	-1.087093	31.416305	0.548318	42.580329	8.687066	0.000000	20.962115	-1.483073	-13.162353	29.603851	0.516685	39.191861	-3.882846	0.000000	-0.473673	0.264224	-0.466434	-0.879659	0.351417	-0.495586	-0.778198	0.642433	-0.495586	-0.541361	0.642433	-0.408130	-0.439853	0.538805	-0.378977	-0.270657	0.409282	-0.349825	-3.383402	2.988951	-2.594165	0.000000	0.000000	-1.700324	-1.414892	1.978814	-1.382464	-13.735463	29.289452	30.141654	87.450621	-12.013829	-6.765772	-6.784963	-8.734473	13.865419	31.730218	89.063251	-17.456016	-2.858829
1.857143	-5.128043	-13.446350	87.249103	0.108243	0.474193	0.785849	24.481679	0.390167	-1.236223	31.619407	0.551863	42.527158	8.593023	0.000000	21.587335	-1.733474	-12.988926	30.031648	0.524151	39.248433	-3.921828	0.000000	-0.453960	0.272235	-0.334727	-0.843049	0.362072	-0.355647	-0.745811	0.661912	-0.355647	-0.518831	0.661912	-0.292886	-0.421547	0.555141	-0.271966	-0.259393	0.421692	-0.251045	-3.242590	3.079574	-1.861650	0.000000	0.000000	-1.786992	-1.233791	2.117481	-2.284060	-13.592253	27.398260	30.729654	87.527230	-11.425545	-6.488263	-6.413936	-8.576533	15.663933	30.542050	88.956868	-17.807632	-2.939908
1.877551	-4.848165	-13.793395	87.463624	0.107034	0.473184	0.786742	24.978846	0.538391	-1.459780	31.864872	0.556147	42.487743	8.513681	0.000000	22.233545	-1.968492	-12.781817	30.499502	0.532317	39.343073	-3.908029	0.000000	-0.429219	0.277918	-0.220434	-0.797102	0.369631	-0.234211	-0.705163	0.675729	-0.234211	-0.490554	0.675729	-0.192880	-0.398572	0.566730	-0.179103	-0.245256	0.430495	-0.165325	-3.065866	3.143862	-1.225987	0.000000	0.000000	-1.778672	-1.090602	2.171696	-3.133147	-13.502373	25.619646	31.429192	87.640078	-10.896147	-6.194599	-6.237005	-8.562827	17.177870	29.992284	88.606493	-17.791083	-2.855761
1.897959	-4.556597	-14.129311	87.715448	0.105819	0.472078	0.787489	25.464066	0.673465	-1.766642	32.139457	0.560939	42.455255	8.492517	0.000000	22.874013	-2.214510	-12.547837	30.994482	0.540956	39.476368	-3.859244	0.000000	-0.402637	0.282207	-0.107096	-0.747737	0.375335	-0.113789	-0.661492	0.686158	-0.113789	-0.460174	0.686158	-0.093709	-0.373889	0.575476	-0.087015	-0.230067	0.437138	-0.080322	-2.875996	3.192379	-0.595636	0.000000	0.000000	-1.658458	-1.046691	2.017441	-3.935414	-13.473882	23.996669	32.216524	87.786916	-10.558871	-5.906959	-6.210484	-8.637240	18.249543	30.025130	88.247124	-17.266986	-2.660819
1.918367	-4.313714	-14.433599	87.998795	0.104698	0.470886	0.788194	25.939008	0.742531	-2.118468	32.476707	0.566825	42.453922	8.499967	0.000000	23.480865	-2.416400	-12.319134	31.495208	0.549695	39.622847	-3.763367	0.000000	-0.380831	0.276273	-0.005008	-0.707241	0.367443	-0.005321	-0.625667	0.671730	-0.005321	-0.435252	0.671730	-0.004382	-0.353640	0.563376	-0.004069	-0.217607	0.427947	-0.003756	-2.720239	3.125256	-0.027855	0.000000	0.000000	-1.391660	-1.000671	1.765708	-4.607431	-13.460947	22.672933	32.998686	87.960249	-10.424351	-5.625344	-6.345621	-8.832099	18.788450	30.676381	88.012422	-16.428708	-2.347623
1.938776	-4.138124	-14.704119	88.289454	0.103706	0.469641	0.788881	26.400251	0.735375	-2.485518	32.865875	0.573618	42.484350	8.531059	0.000000	24.036580	-2.558673	-12.127518	31.972552	0.558026	39.766552	-3.620271	0.000000	-0.365355	0.258807	0.083711	-0.678502	0.344213	0.088943	-0.600242	0.629263	0.088943	-0.417565	0.629263	0.073247	-0.339269	0.527759	0.068015	-0.208764	0.400892	0.062783	-2.609698	2.927673	0.465574	0.000000	0.000000	-0.987432	-0.949170	1.518115	-5.117032	-13.451648	21.718189	33.712943	88.151300	-10.479831	-5.353274	-6.628450	-9.149810	18.807114	31.878040	87.936142	-15.414563	-1.950421
1.959184	-4.037911	-14.938986	88.571610	0.102891	0.468425	0.789553	26.835416	0.656269	-2.824134	33.280230	0.580850	42.535893	8.547563	0.000000	24.521443	-2.635900	-12.012179	32.389805	0.565309	39.894903	-3.399271	0.000000	-0.356747	0.229575	0.158564	-0.662516	0.305335	0.168475	-0.586100	0.558190	0.168475	-0.407727	0.558190	0.138744	-0.331276	0.468150	0.128834	-0.203846	0.355612	0.118923	-2.548212	2.597002	0.881888	0.000000	0.000000	-0.464949	-0.880766	1.381215	-5.438727	-13.426762	21.180341	34.272731	88.334252	-10.694876	-5.138615	-7.011347	-9.637052	18.559625	33.504009	87.933738	-14.547949	-1.574443
1.979592	-3.997880	-15.128442	88.876132	0.102207	0.467361	0.790170	27.203945	0.509714	-3.165919	33.664574	0.587558	42.588087	8.553907	0.000000	24.916403	-2.634695	-11.904779	32.713076	0.570951	39.985486	-3.154810	0.000000	-0.355318	0.191305	0.214255	-0.659860	0.254436	0.227646	-0.583751	0.465139	0.227646	-0.406093	0.465139	0.187473	-0.329948	0.390109	0.174082	-0.203029	0.296331	0.160691	-2.537998	2.164081	1.191622	0.000000	0.000000	0.157314	-0.810913	1.440309	-5.568238	-13.379180	21.042984	34.613261	88.473953	-10.995501	-5.053696	-7.421784	-10.306875	18.276554	35.412083	88.000301	-13.912656	-1.189166
2.000000	-4.009715	-15.298318	89.198617	0.101645	0.466506	0.790692	27.509545	0.317636	-3.475006	33.977096	0.593012	42.627778	8.517789	0.000000	25.229372	-2.568778	-11.835007	32.914524	0.574467	40.037857	-2.842485	0.000000	-0.355028	0.144765	0.255028	-0.659322	0.192538	0.270967	-0.583275	0.351982	0.270967	-0.405761	0.351982	0.223149	-0.329679	0.295205	0.207210	-0.202863	0.224241	0.191271	-2.535929	1.637613	1.418387	0.000000	0.000000	0.869738	-0.741596	1.675987	-5.559114	-13.303166	21.155627	34.745607	88.547222	-11.233066	-5.104241	-7.818809	-11.156168	18.173684	37.468667	88.115307	-13.636752	-0.856569
